# xmcd
#
# Track frame offsets: 
#        150
#        19904
#        29658
#        49545
#        62600
#        84942
#        101992
#        122558
#        143793
#        159105
#        174147
#        220609
#        239473
#        251691
#        265218
#        289900
#        304452
#        313991
#
# Disc length: 4383 seconds
#
# Revision: 0
# Processed by: cddbd v1.5.2PL0 Copyright (c) Steve Scherf et al.
# Submitted via: ExactAudioCopy v0.95b4
#
DISCID=fd111d12
DTITLE=Песняры - Песняры 3-Олеся (1-10)(1974)+Перепёлочка (11-18)(1978
DTITLE=)
DYEAR=1900
DGENRE=Retro
TTITLE0=Олеся
TTITLE1=На что бабе огород
TTITLE2=Наследство
TTITLE3=И здесь гора, и там гора
TTITLE4=Серёжки
TTITLE5=Любовь
TTITLE6=Чёрные очи
TTITLE7=Стоит верба
TTITLE8=Розы цвет
TTITLE9=Парень пашню пашет
TTITLE10=Перепёлочка
TTITLE11=Машенька
TTITLE12=В меяце верасне
TTITLE13=Савка и Гришка
TTITLE14=Калина
TTITLE15=Дивчина-серденько
TTITLE16=Реченька
TTITLE17=Ой, летели гуси
EXTD=
EXTT0=
EXTT1=
EXTT2=
EXTT3=
EXTT4=
EXTT5=
EXTT6=
EXTT7=
EXTT8=
EXTT9=
EXTT10=
EXTT11=
EXTT12=
EXTT13=
EXTT14=
EXTT15=
EXTT16=
EXTT17=
PLAYORDER=
